#!OML:ASF G:\ViconDB\ViconDB\414\test\team2\shane.ASF
:FULLY-SPECIFIED
:DEGREES
178
root 0.573647 16.545 -0.833365 -5.85461 -3.28547 -7.85607
lowerback 7.30111 3.33044 8.77017
upperback 2.1955 5.09569 1.91346
thorax -1.21002 2.55148 -3.30126
lowerneck -12.8415 -3.51082 -4.70887
upperneck 17.1792 -5.50185 8.55457
head 7.78575 -2.13371 3.02182
rclavicle 1.2424e-017 -1.02374e-014
rhumerus -14.7607 16.5157 -96.6393
rradius 37.2033
rwrist 31.9703
rhand -31.155 -13.6062
rfingers 7.12502
rthumb -4.43285 -43.5398
lclavicle 1.2424e-017 -1.02374e-014
lhumerus -48.2124 0.673217 72.7144
lradius 11.2609
lwrist -31.4456
lhand -35.0591 7.36674
lfingers 7.12502
lthumb -8.20178 37.1876
rfemur 31.2203 -12.5419 20.1571
rtibia -4.45278e-014
rfoot -16.4796 10.4296
rtoes -19.1795
lfemur -23.514 18.6508 -9.90965
ltibia 31.2345
lfoot -28.157 -19.127
ltoes -13.8484
179
root 0.603988 16.5275 -0.608499 -5.84478 -3.58794 -7.737
lowerback 7.3388 3.42855 8.75971
upperback 2.04071 5.23746 1.81068
thorax -1.36697 2.61136 -3.41992
lowerneck -12.758 -3.4609 -4.63042
upperneck 17.2684 -5.45087 8.51714
head 7.79306 -2.10821 3.00368
rclavicle -1.26238e-013 -4.25399e-014
rhumerus -15.0606 17.2469 -96.6832
rradius 37.8205
rwrist 31.8786
rhand -31.1491 -13.704
rfingers 7.12502
rthumb -4.42713 -43.6377
lclavicle 1.2424e-017 -1.02374e-014
lhumerus -48.2124 0.673217 72.7144
lradius 11.2609
lwrist -31.4456
lhand -35.0591 7.36674
lfingers 7.12502
lthumb -8.20178 37.1876
rfemur 31.9557 -11.7098 19.8993
rtibia 6.99722e-014
rfoot -16.1909 10.4229
rtoes -20.9496
lfemur -23.0178 17.8234 -10.0214
ltibia 31.7789
lfoot -26.9624 -18.1794
ltoes -13.7827
180
root 0.633543 16.5081 -0.380463 -5.79042 -3.93363 -7.91745
lowerback 7.18339 3.50208 8.99507
upperback 1.96599 5.33851 1.76581
thorax -1.31983 2.66167 -3.59181
lowerneck -12.7978 -3.43787 -4.47879
upperneck 17.3401 -5.4507 8.49338
head 7.81922 -2.09806 2.97067
rclavicle -1.79993e-014 -6.16232e-015
rhumerus -15.2882 17.4158 -96.9312
rradius 38.3079
rwrist 31.7133
rhand -31.2279 -13.5317
rfingers 7.12502
rthumb -4.50317 -43.4638
lclavicle -1.79993e-014 -6.16232e-015
lhumerus -49.3091 1.48215 70.9614
lradius 10.8551
lwrist -32.9629
lhand -35.0776 7.28404
lfingers 7.12502
lthumb -8.21963 37.1042
rfemur 32.6207 -10.8811 19.9904
rtibia 5.08889e-014
rfoot -15.5636 10.4943
rtoes -21.8229
lfemur -22.4417 17.3645 -9.86401
ltibia 32.3553
lfoot -26.2585 -17.8092
ltoes -13.4349
181
root 0.666024 16.4961 -0.140461 -5.84697 -4.40049 -7.77105
lowerback 7.08009 3.63828 9.0043
upperback 1.89536 5.50949 1.59634
thorax -1.29666 2.74648 -3.77611
lowerneck -12.7898 -3.3657 -4.3074
upperneck 17.3971 -5.3961 8.51667
head 7.82898 -2.05772 2.95652
rclavicle -3.93283e-014 -2.82274e-014
rhumerus -15.7105 18.0818 -97.1814
rradius 39.0346
rwrist 30.7648
rhand -31.1031 -13.4561
rfingers 7.12502
rthumb -4.38271 -43.3908
lclavicle -1.79993e-014 -6.16232e-015
lhumerus -49.3091 1.48215 70.9614
lradius 10.8551
lwrist -32.9629
lhand -35.0776 7.28404
lfingers 7.12502
lthumb -8.21963 37.1042
rfemur 33.4029 -9.88788 19.7402
rtibia 4.13472e-014
rfoot -14.8692 10.3962
rtoes -22.9775
lfemur -21.7961 16.4657 -9.90955
ltibia 32.8776
lfoot -24.3079 -17.3439
ltoes -12.2668
182
root 0.688869 16.4967 0.0996047 -5.89067 -4.78011 -7.93369
lowerback 7.01804 3.67999 9.03759
upperback 1.77138 5.56839 1.58504
thorax -1.37988 2.76842 -3.8102
lowerneck -12.6085 -3.31059 -4.04084
upperneck 17.4009 -5.35231 8.37615
head 7.78351 -2.03701 2.87169
rclavicle 3.26224e-014 1.68967e-014
rhumerus -16.1904 18.1763 -97.5244
rradius 39.2759
rwrist 30.9669
rhand -31.2857 -13.4109
rfingers 7.12502
rthumb -4.559 -43.3418
lclavicle 3.26224e-014 1.68967e-014
lhumerus -50.3953 2.2745 69.4698
lradius 10.5957
lwrist -34.1876
lhand -35.1945 7.57386
lfingers 7.12502
lthumb -8.33252 37.3895
rfemur 34.1764 -9.06485 19.9044
rtibia -2.22639e-014
rfoot -14.0061 10.2209
rtoes -24.0816
lfemur -21.3724 15.9952 -9.56252
ltibia 33.3237
lfoot -21.33 -17.4641
ltoes -9.56884
183
root 0.7141 16.5032 0.345376 -5.81566 -5.15704 -7.36381
lowerback 6.65791 3.84307 8.56279
upperback 1.64701 5.71584 1.28508
thorax -1.30635 2.84355 -3.84449
lowerneck -12.4243 -3.3218 -4.06945
upperneck 17.4252 -5.40302 8.55131
head 7.7678 -2.05105 2.93145
rclavicle 3.00429e-014 -1.13307e-014
rhumerus -16.7207 18.174 -97.7963
rradius 39.4639
rwrist 31.1511
rhand -31.4395 -13.1823
rfingers 7.12502
rthumb -4.7075 -43.11
lclavicle 3.00429e-014 -1.13307e-014
lhumerus -50.7706 2.0919 69.2395
lradius 10.5367
lwrist -34.2511
lhand -35.1696 7.84226
lfingers 7.12502
lthumb -8.30844 37.6589
rfemur 34.7372 -8.14642 19.3225
rtibia -6.36111e-014
rfoot -12.8217 9.86674
rtoes -25.8446
lfemur -20.7926 15.2915 -10.0448
ltibia 33.7019
lfoot -19.8268 -16.6404
ltoes -8.0359
184
root 0.738423 16.5062 0.591408 -5.89313 -5.33192 -6.93911
lowerback 6.61376 3.90285 8.05366
upperback 1.39186 5.76864 1.10358
thorax -1.57333 2.85334 -3.76597
lowerneck -12.0926 -3.28392 -4.09338
upperneck 17.6122 -5.4105 8.76684
head 7.77691 -2.04083 3.01198
rclavicle -1.83488e-014 1.31198e-014
rhumerus -17.6434 18.1771 -98.2733
rradius 39.6435
rwrist 30.7923
rhand -31.5817 -13.4388
rfingers 7.12502
rthumb -4.84487 -43.3634
lclavicle -1.83488e-014 1.31198e-014
lhumerus -51.3979 2.22028 68.7045
lradius 10.4032
lwrist -35.2367
lhand -35.1547 7.55768
lfingers 7.12502
lthumb -8.29404 37.3749
rfemur 35.5016 -7.42166 18.8074
rtibia 5.08889e-014
rfoot -11.3768 9.81105
rtoes -26.9123
lfemur -19.9862 15.2475 -10.3738
ltibia 33.9908
lfoot -19.1288 -16.6873
ltoes -8.04405
185
root 0.767785 16.5185 0.834922 -5.96829 -5.44973 -6.52296
lowerback 6.46849 3.92881 7.71236
upperback 1.23148 5.77021 0.857096
thorax -1.66752 2.84805 -3.82945
lowerneck -11.9508 -3.26176 -4.04568
upperneck 17.8526 -5.44043 8.90905
head 7.83562 -2.03722 3.05239
rclavicle 1.15916e-014 1.51076e-014
rhumerus -18.3514 17.6104 -98.5943
rradius 39.4712
rwrist 31.744
rhand -31.5019 -13.1891
rfingers 7.12502
rthumb -4.76779 -43.1155
lclavicle 1.15916e-014 1.51076e-014
lhumerus -51.7351 3.55418 67.1433
lradius 10.1979
lwrist -37.0549
lhand -35.4651 7.83271
lfingers 7.12502
lthumb -8.5936 37.6378
rfemur 36.126 -6.77124 18.3266
rtibia 1.59028e-014
rfoot -9.50742 9.78895
rtoes -28.8015
lfemur -19.0663 15.0251 -10.669
ltibia 34.1852
lfoot -18.7417 -16.7074
ltoes -7.63212
186
root 0.788062 16.5409 1.07147 -5.95852 -5.35686 -6.06651
lowerback 6.16778 3.91034 7.15595
upperback 1.1117 5.68462 0.654639
thorax -1.66845 2.80549 -3.7097
lowerneck -11.9264 -3.2287 -4.17262
upperneck 18.1211 -5.4474 9.18314
head 7.93171 -2.01845 3.16847
rclavicle -5.479e-014 5.1684e-015
rhumerus -19.0462 17.4131 -98.8227
rradius 39.1604
rwrist 32.0762
rhand -31.8053 -13.115
rfingers 7.12502
rthumb -5.06078 -43.0345
lclavicle -5.479e-014 5.1684e-015
lhumerus -51.598 3.59682 67.309
lradius 9.77364
lwrist -37.0047
lhand -35.0997 8.09611
lfingers 7.12502
lthumb -8.24099 37.9154
rfemur 36.6281 -6.30698 17.7532
rtibia 9.54166e-015
rfoot -7.03577 9.7722
rtoes -29.3921
lfemur -18.294 15.1695 -11.0583
ltibia 34.32
lfoot -18.6598 -17.0692
ltoes -7.6411
187
root 0.809855 16.5599 1.30167 -6.15316 -5.20685 -5.38681
lowerback 5.95499 3.87249 6.31504
upperback 1.12758 5.5601 0.467568
thorax -1.60918 2.75025 -3.41615
lowerneck -11.7989 -3.25326 -4.40478
upperneck 18.1501 -5.49654 9.45693
head 7.93589 -2.03535 3.29592
rclavicle -3.32467e-014 -8.74653e-015
rhumerus -19.6926 16.9058 -99.0244
rradius 38.8326
rwrist 32.2889
rhand -31.8691 -13.1318
rfingers 7.12502
rthumb -5.1223 -43.0499
lclavicle -3.32467e-014 -8.74653e-015
lhumerus -51.5208 3.6965 67.5183
lradius 9.7649
lwrist -36.4971
lhand -34.9331 7.8139
lfingers 7.12502
lthumb -8.08022 37.6394
rfemur 37.1916 -5.86638 16.9244
rtibia 0
rfoot -4.11155 9.82351
rtoes -30.6223
lfemur -17.2692 15.4849 -11.639
ltibia 34.3527
lfoot -19.1561 -17.3281
ltoes -7.8765
188
root 0.834624 16.583 1.52327 -6.3875 -4.9206 -5.04893
lowerback 5.69487 3.8099 6.06405
upperback 1.34025 5.43126 0.290828
thorax -1.26321 2.70371 -3.42165
lowerneck -12.0553 -3.32147 -4.602
upperneck 18.2537 -5.59986 9.67579
head 8.03706 -2.06821 3.39069
rclavicle -1.03356e-013 4.77083e-015
rhumerus -20.1246 16.0815 -99.0661
rradius 38.5919
rwrist 32.5782
rhand -31.9078 -13.2468
rfingers 7.12502
rthumb -5.15972 -43.1639
lclavicle -1.03356e-013 4.77083e-015
lhumerus -50.8482 3.85954 67.8916
lradius 9.53569
lwrist -36.4747
lhand -35.0099 7.90621
lfingers 7.12502
lthumb -8.15436 37.7289
rfemur 37.7382 -5.61908 16.4639
rtibia 1.90833e-013
rfoot -0.723794 9.8436
rtoes -31.2957
lfemur -16.14 15.7481 -11.8763
ltibia 34.2362
lfoot -19.5509 -17.9579
ltoes -7.61043
189
root 0.858099 16.607 1.73936 -6.67112 -4.80391 -4.55186
lowerback 5.72994 3.79562 5.52244
upperback 1.42079 5.37779 0.128548
thorax -1.23949 2.6808 -3.28672
lowerneck -12.1937 -3.35101 -4.85271
upperneck 18.4663 -5.65671 9.9255
head 8.15195 -2.08049 3.51333
rclavicle 4.49315e-014 5.1684e-015
rhumerus -20.8347 15.3993 -99.133
rradius 38.29
rwrist 32.6928
rhand -31.7506 -13.1944
rfingers 7.12502
rthumb -5.00796 -43.1152
lclavicle 4.49315e-014 5.1684e-015
lhumerus -50.4654 3.924 68.225
lradius 9.71691
lwrist -36.5356
lhand -34.923 8.10434
lfingers 7.12502
lthumb -8.07047 37.9302
rfemur 35.703 -5.2691 15.7649
rtibia 5.56894
rfoot -0.050511 9.86488
rtoes -31.5309
lfemur -14.8771 16.2318 -12.2792
ltibia 33.9817
lfoot -19.8974 -18.8121
ltoes -7.14893
190
root 0.884865 16.6384 1.95043 -6.8484 -4.65608 -4.2585
lowerback 5.78962 3.73343 5.24884
upperback 1.46955 5.27947 0.0251969
thorax -1.24687 2.6331 -3.23979
lowerneck -12.3038 -3.40191 -5.12988
upperneck 18.5277 -5.71992 10.1486
head 8.21236 -2.10446 3.62905
rclavicle -3.38245e-014 1.94809e-014
rhumerus -21.6676 15.3873 -99.2189
rradius 38.164
rwrist 31.7214
rhand -31.8999 -13.5235
rfingers 7.12502
rthumb -5.15206 -43.4409
lclavicle -3.38245e-014 1.94809e-014
lhumerus -50.1154 3.98576 68.4913
lradius 10.1759
lwrist -36.285
lhand -33.9797 7.9545
lfingers 7.12502
lthumb -7.15993 37.8134
rfemur 31.4828 -5.09456 15.2488
rtibia 15.6028
rfoot -1.85548 9.81243
rtoes -31.9981
lfemur -13.6849 16.4213 -12.524
ltibia 33.5687
lfoot -20.2276 -19.4153
ltoes -6.79224
191
root 0.907601 16.6716 2.15484 -7.09929 -4.5516 -3.99924
lowerback 6.02598 3.6461 4.89325
upperback 1.53521 5.15294 -0.0104261
thorax -1.35074 2.5686 -3.08918
lowerneck -12.4458 -3.43837 -5.57429
upperneck 18.5806 -5.75133 10.4924
head 8.28177 -2.11303 3.81816
rclavicle 3.59924e-014 -5.56597e-015
rhumerus -22.4498 14.7158 -99.1675
rradius 37.9057
rwrist 32.1843
rhand -31.6448 -13.5937
rfingers 7.12502
rthumb -4.90579 -43.5169
lclavicle 3.59924e-014 -5.56597e-015
lhumerus -49.6748 3.19737 70.0158
lradius 10.5225
lwrist -35.1643
lhand -34.1109 7.91324
lfingers 7.12502
lthumb -7.28665 37.7678
rfemur 28.8048 -4.77064 14.9494
rtibia 22.2141
rfoot -1.32427 9.5558
rtoes -30.2622
lfemur -12.3051 16.2767 -12.7082
ltibia 32.9748
lfoot -20.5433 -19.4187
ltoes -6.55139
